# File created by Blade
# Date/Time:  Tue Jan 27 19:38:14 2015
# Frame Rate: 120.000 fps
#------------------------------------------------------
:FULLY-SPECIFIED
:DEGREES
3895
root 3.853338 32.347216 1.808584 -2.593286 -32.085465 -1.505016
Spine 4.024581 -14.214782 -3.429495
Head 14.103608 29.666111 12.764219
LeftShoulder -14.301973 3.407896 31.317652
LeftArm -7.934174 35.104760 -106.912913
LeftForeArm 1.759600 -0.000000 19.506018
LeftHand 10.137897 -0.000000 -3.709762
LeftHandThumb1 -26.253704 0.000000 33.147579
RightShoulder -33.482697 -24.777693 -22.546106
RightArm -16.589259 63.034284 73.615084
RightForeArm -0.798930 0.000000 150.397047
RightHand 27.887983 -0.000000 -61.619099
RightHandThumb1 -24.326973 -0.000000 -32.862282
LeftUpLeg 11.994676 15.184024 -0.727659
LeftLeg 0.401677 -0.000000 -0.000000
LeftFoot -23.139392 24.491603 -25.898318
LeftToeBase 14.730674 -0.000000 -0.000000
RightUpLeg -1.081355 13.085599 6.106937
RightLeg 11.846247 -0.000000 -0.000000
RightFoot -7.968588 -3.338366 10.016006
RightToeBase 9.358540 -0.000000 -0.000000
3896
root 3.856290 32.347379 1.808495 -2.573864 -32.068548 -1.499637
Spine 4.014553 -14.229531 -3.416932
Head 14.137295 29.621130 12.777965
LeftShoulder -14.308855 3.443119 31.304209
LeftArm -7.923706 35.144630 -106.886372
LeftForeArm 1.769594 -0.000000 19.495257
LeftHand 10.169810 -0.000000 -3.650107
LeftHandThumb1 -26.253704 0.000000 33.147579
RightShoulder -33.421122 -24.707722 -22.562764
RightArm -16.899948 63.095195 73.409647
RightForeArm -0.772923 -0.000000 150.012244
RightHand 27.703815 -0.000000 -61.478487
RightHandThumb1 -24.326973 -0.000000 -32.862282
LeftUpLeg 11.977927 15.150910 -0.743579
LeftLeg 0.377143 -0.000000 -0.000000
LeftFoot -23.261446 24.443532 -26.113923
LeftToeBase 15.088444 -0.000000 -0.000000
RightUpLeg -1.098270 13.090185 6.092070
RightLeg 11.833111 -0.000000 -0.000000
RightFoot -7.976904 -3.350542 10.043328
RightToeBase 9.349929 -0.000000 -0.000000
3897
root 3.859526 32.347159 1.809009 -2.560512 -32.051827 -1.508044
Spine 4.024279 -14.176101 -3.398782
Head 14.143885 29.512719 12.809763
LeftShoulder -14.257710 3.447031 31.312222
LeftArm -7.882373 35.131333 -106.873509
LeftForeArm 1.831954 -0.000000 19.446016
LeftHand 10.170548 0.000000 -3.629993
LeftHandThumb1 -26.253704 0.000000 33.147579
RightShoulder -33.401389 -24.617600 -22.568768
RightArm -17.324835 63.124487 73.118489
RightForeArm -0.973544 -0.000000 149.472914
RightHand 27.713763 -0.000000 -61.276505
RightHandThumb1 -24.326973 -0.000000 -32.862282
LeftUpLeg 11.971999 15.128705 -0.751189
LeftLeg 0.361008 -0.000000 -0.000000
LeftFoot -23.140443 24.509147 -25.913231
LeftToeBase 14.761936 -0.000000 -0.000000
RightUpLeg -1.105831 13.081133 6.090629
RightLeg 11.826953 -0.000000 -0.000000
RightFoot -7.968132 -3.353579 10.054850
RightToeBase 9.323239 -0.000000 -0.000000
3898
root 3.862142 32.347263 1.809649 -2.541616 -32.046505 -1.509846
Spine 4.025581 -14.170177 -3.385483
Head 14.152678 29.486595 12.824660
LeftShoulder -14.268114 3.480101 31.306311
LeftArm -7.850824 35.139633 -106.848595
LeftForeArm 1.875454 -0.000000 19.416572
LeftHand 10.157412 -0.000000 -3.597414
LeftHandThumb1 -26.253704 0.000000 33.147579
RightShoulder -33.352779 -24.510911 -22.599730
RightArm -17.692537 63.114392 72.899581
RightForeArm -1.342260 -0.000000 148.800948
RightHand 27.718407 -0.000000 -61.434775
RightHandThumb1 -24.326973 -0.000000 -32.862282
LeftUpLeg 11.964768 15.128294 -0.756635
LeftLeg 0.331955 -0.000000 -0.000000
LeftFoot -23.238351 24.466002 -26.080128
LeftToeBase 15.015075 -0.000000 -0.000000
RightUpLeg -1.123494 13.089489 6.083564
RightLeg 11.823506 -0.000000 -0.000000
RightFoot -7.974909 -3.360620 10.060543
RightToeBase 9.340310 -0.000000 -0.000000
3899
root 3.865371 32.347306 1.810953 -2.522072 -32.036690 -1.512134
Spine 4.035901 -14.208044 -3.375086
Head 14.142649 29.494935 12.829940
LeftShoulder -14.302921 3.497854 31.297502
LeftArm -7.858301 35.124222 -106.841417
LeftForeArm 1.900529 0.000000 19.392951
LeftHand 10.186735 -0.000000 -3.604196
LeftHandThumb1 -26.253704 0.000000 33.147579
RightShoulder -33.254199 -24.350858 -22.665944
RightArm -18.157741 63.021122 72.613123
RightForeArm -1.805072 0.000000 147.923370
RightHand 27.641428 -0.000000 -61.266959
RightHandThumb1 -24.326973 -0.000000 -32.862282
LeftUpLeg 11.954040 15.126058 -0.764007
LeftLeg 0.310410 -0.000000 -0.000000
LeftFoot -23.238914 24.457267 -26.099179
LeftToeBase 15.050978 -0.000000 -0.000000
RightUpLeg -1.134957 13.077867 6.074066
RightLeg 11.807739 -0.000000 -0.000000
RightFoot -7.972829 -3.354605 10.079010
RightToeBase 9.374084 -0.000000 -0.000000
3900
root 3.867533 32.347446 1.812076 -2.502088 -32.038545 -1.523234
Spine 4.049477 -14.214814 -3.364632
Head 14.123486 29.485490 12.851144
LeftShoulder -14.309648 3.520396 31.299695
LeftArm -7.853112 35.070426 -106.837813
LeftForeArm 1.942809 -0.000000 19.357853
LeftHand 10.209651 -0.000000 -3.573993
LeftHandThumb1 -26.253704 0.000000 33.147579
RightShoulder -33.159370 -24.189701 -22.718972
RightArm -18.696982 62.858126 72.238548
RightForeArm -2.226622 -0.000000 146.873804
RightHand 27.631555 0.000000 -61.194081
RightHandThumb1 -24.326973 -0.000000 -32.862282
LeftUpLeg 11.955289 15.132855 -0.765402
LeftLeg 0.281037 -0.000000 -0.000000
LeftFoot -23.106099 24.510794 -25.911818
LeftToeBase 14.759615 -0.000000 -0.000000
RightUpLeg -1.141541 13.081696 6.076715
RightLeg 11.789412 -0.000000 -0.000000
RightFoot -7.957919 -3.362143 10.053322
RightToeBase 9.344918 -0.000000 -0.000000
3901
root 3.870067 32.348269 1.813613 -2.481325 -32.033363 -1.525880
Spine 4.061415 -14.237411 -3.361928
Head 14.091539 29.474028 12.860414
LeftShoulder -14.331051 3.551057 31.281355
LeftArm -7.839948 35.045397 -106.813428
LeftForeArm 1.927677 -0.000000 19.328309
LeftHand 10.203869 -0.000000 -3.571742
LeftHandThumb1 -26.253704 0.000000 33.147579
RightShoulder -33.080603 -24.045545 -22.746919
RightArm -19.174465 62.681265 71.914488
RightForeArm -2.262464 -0.000000 145.625858
RightHand 27.789888 -0.000000 -61.529632
RightHandThumb1 -24.326973 -0.000000 -32.862282
LeftUpLeg 11.945371 15.113215 -0.773523
LeftLeg 0.258144 -0.000000 -0.000000
LeftFoot -23.212335 24.474029 -26.081559
LeftToeBase 15.014728 -0.000000 -0.000000
RightUpLeg -1.154455 13.077236 6.067727
RightLeg 11.776218 -0.000000 -0.000000
RightFoot -7.944898 -3.358203 10.055184
RightToeBase 9.305986 -0.000000 -0.000000
3902
root 3.872728 32.348409 1.815620 -2.453220 -32.038552 -1.536933
Spine 4.069037 -14.244463 -3.353158
Head 14.058880 29.466289 12.876643
LeftShoulder -14.334109 3.571639 31.278471
LeftArm -7.854351 34.995949 -106.815373
LeftForeArm 1.901499 -0.000000 19.325280
LeftHand 10.158590 0.000000 -3.555013
LeftHandThumb1 -26.253704 0.000000 33.147579
RightShoulder -33.024192 -23.942089 -22.761572
RightArm -19.529498 62.425338 71.704260
RightForeArm -2.368114 0.000000 144.150656
RightHand 27.565714 -0.000000 -61.235820
RightHandThumb1 -24.326973 -0.000000 -32.862282
LeftUpLeg 11.937558 15.149247 -0.769692
LeftLeg 0.232341 -0.000000 -0.000000
LeftFoot -23.196709 24.459270 -26.060376
LeftToeBase 15.053321 -0.000000 -0.000000
RightUpLeg -1.168792 13.077130 6.066497
RightLeg 11.758444 -0.000000 -0.000000
RightFoot -7.935875 -3.357432 10.072310
RightToeBase 9.311380 -0.000000 -0.000000
3903
root 3.875711 32.348638 1.817914 -2.422854 -32.045228 -1.548373
Spine 4.075755 -14.235348 -3.342968
Head 14.014260 29.445634 12.883563
LeftShoulder -14.323327 3.578367 31.272396
LeftArm -7.867541 34.973774 -106.815878
LeftForeArm 1.838179 -0.000000 19.323638
LeftHand 10.077909 -0.000000 -3.577181
LeftHandThumb1 -26.253704 0.000000 33.147579
RightShoulder -32.917664 -23.798731 -22.788683
RightArm -20.068510 62.209694 71.295493
RightForeArm -1.997271 -0.000000 142.553310
RightHand 27.414343 -0.000000 -60.925705
RightHandThumb1 -24.326973 -0.000000 -32.862282
LeftUpLeg 11.924372 15.155714 -0.776502
LeftLeg 0.214374 -0.000000 -0.000000
LeftFoot -23.076339 24.514076 -25.874408
LeftToeBase 14.780733 -0.000000 -0.000000
RightUpLeg -1.184457 13.062386 6.061312
RightLeg 11.738991 -0.000000 -0.000000
RightFoot -7.912652 -3.328824 10.057244
RightToeBase 9.289858 -0.000000 -0.000000
3904
root 3.878848 32.348762 1.820551 -2.388800 -32.058105 -1.554067
Spine 4.072462 -14.228632 -3.341363
Head 13.985183 29.397822 12.895896
LeftShoulder -14.286958 3.526428 31.289477
LeftArm -7.953419 34.889822 -106.857241
LeftForeArm 1.692637 -0.000000 19.265897
LeftHand 10.264392 -0.000000 -3.751841
LeftHandThumb1 -26.253704 0.000000 33.147579
RightShoulder -32.803856 -23.529602 -22.912479
RightArm -20.898934 61.955031 70.605917
RightForeArm -1.144199 -0.000000 140.773248
RightHand 27.749130 -0.000000 -60.648102
RightHandThumb1 -24.326973 -0.000000 -32.862282
LeftUpLeg 11.910005 15.156546 -0.784752
LeftLeg 0.181865 -0.000000 -0.000000
LeftFoot -23.181010 24.474455 -26.054655
LeftToeBase 15.026424 -0.000000 -0.000000
RightUpLeg -1.207916 13.067636 6.049953
RightLeg 11.720763 -0.000000 -0.000000
RightFoot -7.913112 -3.317578 10.061103
RightToeBase 9.355883 -0.000000 -0.000000
3905
root 3.882010 32.349288 1.824237 -2.351319 -32.066226 -1.564188
Spine 4.079733 -14.217827 -3.327708
Head 13.922729 29.353168 12.884228
LeftShoulder -14.302424 3.588245 31.268978
LeftArm -7.882226 34.941163 -106.820887
LeftForeArm 1.635563 -0.000000 19.224453
LeftHand 10.298341 -0.000000 -3.848308
LeftHandThumb1 -26.253704 0.000000 33.147579
RightShoulder -32.716485 -23.650122 -22.760756
RightArm -20.976922 61.834282 70.568595
RightForeArm -0.466655 0.000000 138.827936
RightHand 27.616766 -0.000000 -60.720208
RightHandThumb1 -24.326973 -0.000000 -32.862282
LeftUpLeg 11.904046 15.099810 -0.803968
LeftLeg 0.133041 -0.000000 -0.000000
LeftFoot -23.206518 24.523871 -26.098731
LeftToeBase 15.045514 -0.000000 -0.000000
RightUpLeg -1.224356 13.062294 6.041441
RightLeg 11.691570 -0.000000 -0.000000
RightFoot -7.897941 -3.296134 10.066717
RightToeBase 9.385903 -0.000000 -0.000000
